<svg xmlns="http://www.w3.org/2000/svg" width="73" height="58"><svg width="73" height="58" viewBox="0 0 73 58" fill="none" xmlns="http://www.w3.org/2000/svg"><path d="M29.84 57v-9.28l-.24-1.52V30.68c0-3.573-1.013-6.32-3.04-8.24-1.973-1.92-4.933-2.88-8.88-2.88-2.72 0-5.307.453-7.76 1.36-2.453.907-4.533 2.107-6.24 3.6l-2.56-4.24c2.133-1.813 4.693-3.2 7.68-4.16 2.987-1.013 6.133-1.52 9.44-1.52 5.44 0 9.627 1.36 12.56 4.08 2.987 2.667 4.48 6.747 4.48 12.24V57h-5.44Zm-14.48.4c-3.147 0-5.893-.507-8.24-1.52-2.293-1.067-4.053-2.507-5.28-4.32-1.227-1.867-1.84-4-1.84-6.4 0-2.187.507-4.16 1.52-5.92 1.067-1.813 2.773-3.253 5.12-4.32 2.4-1.12 5.6-1.68 9.6-1.68h14.48v4.24H16.4c-4.053 0-6.88.72-8.48 2.16C6.373 41.08 5.6 42.867 5.6 45c0 2.4.933 4.32 2.8 5.76 1.867 1.44 4.48 2.16 7.84 2.16 3.2 0 5.947-.72 8.24-2.16 2.347-1.493 4.053-3.627 5.12-6.4l1.28 3.92c-1.067 2.773-2.933 4.987-5.6 6.64-2.613 1.653-5.92 2.48-9.92 2.48Z" fill="#0E0E0E"/><path d="M53.36 57.4c-4.374 0-8.214-.907-11.52-2.72-3.307-1.867-5.894-4.4-7.76-7.6-1.867-3.253-2.8-6.96-2.8-11.12 0-4.16.88-7.84 2.64-11.04 1.813-3.2 4.266-5.707 7.36-7.52 3.146-1.867 6.666-2.8 10.56-2.8 3.946 0 7.44.907 10.48 2.72 3.093 1.76 5.52 4.267 7.28 7.52 1.76 3.2 2.64 6.907 2.64 11.12 0 .267-.027.56-.08.88v.88H35.6v-4.24h33.52l-2.24 1.68c0-3.04-.667-5.733-2-8.08-1.28-2.4-3.04-4.267-5.28-5.6-2.24-1.333-4.827-2-7.76-2-2.88 0-5.467.667-7.76 2-2.294 1.333-4.08 3.2-5.36 5.6-1.28 2.4-1.92 5.147-1.92 8.24v.88c0 3.2.693 6.027 2.08 8.48 1.44 2.4 3.413 4.293 5.92 5.68 2.56 1.333 5.466 2 8.72 2 2.56 0 4.933-.453 7.12-1.36 2.24-.907 4.16-2.293 5.76-4.16l3.2 3.68c-1.867 2.24-4.214 3.947-7.04 5.12-2.774 1.173-5.84 1.76-9.2 1.76Z" fill="#0E0E0E"/><path fill-rule="evenodd" clip-rule="evenodd" d="M67.6 6h-28V0h28v6Z" fill="#0E0E0E"/></svg><style>@media (prefers-color-scheme:light){:root{filter:none}}</style></svg>