<svg xmlns="http://www.w3.org/2000/svg" aria-hidden="true" style="position:absolute;width:0;height:0;overflow:hidden">
<defs>
<symbol id="icon-Vector" viewBox="0 0 18 32"><path stroke-linecap="round" stroke-linejoin="round" stroke-width="2.462" d="M17.231 1.641h-4.308a7.18 7.18 0 0 0-7.18 7.18v4.308H1.435v5.744h4.308V30.36h5.744V18.873h4.308l1.436-5.744h-5.744V8.821a1.438 1.438 0 0 1 1.436-1.436h4.308V1.641z"/></symbol>
<symbol id="icon-instagram" viewBox="0 0 32 32"><path stroke-linecap="round" stroke-linejoin="round" stroke-width="2.286" d="M22.666 2.667H9.333a6.667 6.667 0 0 0-6.667 6.667v13.333a6.667 6.667 0 0 0 6.667 6.667h13.333a6.667 6.667 0 0 0 6.667-6.667V9.334a6.667 6.667 0 0 0-6.667-6.667z"/><path stroke-linecap="round" stroke-linejoin="round" stroke-width="2.286" d="M21.333 15.16a5.336 5.336 0 0 1-6.123 6.049 5.33 5.33 0 0 1-3.916-7.663 5.33 5.33 0 0 1 5.546-2.878 5.334 5.334 0 0 1 4.493 4.493zM23.334 8.667h.013"/></symbol>
<symbol id="arrow_left" viewBox="0 0 215 32"><path d="m25.987 25.301-10.482-7.128 199.352-.006V12.59l-198.103.006 9.874-5.675-2.777-4.835L1.127 15.142 22.85 29.913l3.137-4.612z"/></symbol>
<symbol id="arrow_right" viewBox="0 0 215 32"><path d="m188.87 5.458 10.482 7.128L0 12.592v5.577l198.103-.006-9.874 5.675 2.778 4.835 22.724-13.056L192.008.846l-3.137 4.612z"/></symbol>
<symbol id="icon-logo" viewBox="0 0 40 32"><path d="M16.463 31.448v-5.12l-.132-.839v-8.563c0-1.971-.559-3.487-1.677-4.546-1.089-1.059-2.722-1.589-4.899-1.589-1.501 0-2.928.25-4.281.75s-2.501 1.162-3.443 1.986L.619 11.188c1.177-1 2.589-1.766 4.237-2.295a16.102 16.102 0 0 1 5.208-.839c3.001 0 5.311.75 6.93 2.251 1.648 1.471 2.472 3.722 2.472 6.753v14.389h-3.001zm-7.989.221c-1.736 0-3.252-.28-4.546-.839-1.265-.589-2.236-1.383-2.913-2.383C.338 27.417 0 26.24 0 24.916c0-1.206.28-2.295.839-3.266.589-1 1.53-1.795 2.825-2.383 1.324-.618 3.09-.927 5.297-.927h7.989v2.339H9.049c-2.236 0-3.796.397-4.679 1.192-.853.794-1.28 1.78-1.28 2.957 0 1.324.515 2.383 1.545 3.178s2.472 1.192 4.326 1.192c1.766 0 3.281-.397 4.546-1.192 1.295-.824 2.236-2.001 2.825-3.531l.706 2.163c-.589 1.53-1.618 2.751-3.09 3.663-1.442.912-3.266 1.368-5.473 1.368z"/><path d="M29.44 31.669c-2.413 0-4.531-.5-6.356-1.501-1.824-1.03-3.251-2.428-4.281-4.193-1.03-1.795-1.545-3.84-1.545-6.135s.486-4.326 1.457-6.091c1-1.766 2.354-3.149 4.061-4.149 1.736-1.03 3.678-1.545 5.826-1.545 2.178 0 4.105.5 5.782 1.501 1.707.971 3.046 2.354 4.017 4.149.971 1.766 1.457 3.811 1.457 6.135 0 .147-.015.309-.044.486v.486H19.643v-2.339h18.494l-1.236.927c0-1.677-.368-3.163-1.103-4.458-.706-1.324-1.677-2.354-2.913-3.09s-2.663-1.103-4.281-1.103c-1.589 0-3.016.368-4.281 1.103s-2.251 1.766-2.957 3.09c-.706 1.324-1.059 2.84-1.059 4.546v.486c0 1.766.383 3.325 1.148 4.679a8.571 8.571 0 0 0 3.266 3.134c1.412.736 3.016 1.103 4.811 1.103 1.412 0 2.722-.25 3.928-.75a8.169 8.169 0 0 0 3.178-2.295l1.766 2.03c-1.03 1.236-2.325 2.177-3.884 2.825-1.53.647-3.222.971-5.076.971zM37.296 3.31H21.848V0h15.448v3.31z"/></symbol>

<symbol id="icon-Burger" viewBox="0 0 32 32">
<path d="M4 5.333h24v2.667h-24v-2.667zM12 14.667h16v2.667h-16v-2.667zM4 24h24v2.667h-24v-2.667z"></path>
</symbol>

<symbol id="icon-x" viewBox="0 0 32 32">
<path d="M31.439 3.166l-3.166-3.166-12.554 12.552-12.552-12.552-3.166 3.166 12.552 12.552-12.552 12.554 3.166 3.166 12.552-12.554 12.554 12.554 3.166-3.166-12.554-12.554 12.554-12.552z"></path>
</symbol>

<symbol id="icon-call-us" viewBox="0 0 32 32"><path d="M30.604 5.067 26.344.812a2.752 2.752 0 0 0-3.904 0l-4.588 4.579a2.76 2.76 0 0 0 0 3.912l3.584 3.588a16.215 16.215 0 0 1-3.456 5.091 16.249 16.249 0 0 1-5.088 3.464l-3.584-3.588a2.752 2.752 0 0 0-3.01-.603 2.715 2.715 0 0 0-.894.603L.812 22.437a2.76 2.76 0 0 0 0 3.912l4.256 4.256a4.79 4.79 0 0 0 3.368 1.396c.26 0 .512-.02.768-.064C14.5 31.065 19.756 28.245 24 24.006c4.24-4.247 7.056-9.503 7.936-14.802a4.768 4.768 0 0 0-1.332-4.136zM29.1 8.727c-.78 4.715-3.316 9.419-7.136 13.238S13.444 28.32 8.728 29.1c-.592.1-1.2-.1-1.632-.528l-4.18-4.179 4.432-4.436 4.828 4.835.864-.32a19.243 19.243 0 0 0 11.428-11.431l.32-.864-4.832-4.827 4.432-4.435 4.18 4.179c.432.432.632 1.04.532 1.632z"/></symbol>
<symbol id="icon-btn" viewBox="0 0 32 32"><path d="M21.177 14.541a.193.193 0 0 0-.144-.231l-1.69-.39a.193.193 0 0 0-.087.375l1.503.347-.347 1.503a.193.193 0 0 0 .375.087l.39-1.69zm-9.894 6.249 9.809-6.129-.204-.327-9.809 6.129.204.327zM28.663 17.119c.009-.15.038-.291.087-.422a.955.955 0 0 1 .181-.306l.188.122a1.08 1.08 0 0 0-.162.276 1.137 1.137 0 0 0-.08.36c-.01.173.009.299.058.379a.26.26 0 0 0 .212.127.193.193 0 0 0 .16-.057.37.37 0 0 0 .096-.161c.025-.068.047-.144.065-.229s.04-.169.063-.254a.958.958 0 0 1 .093-.224.48.48 0 0 1 .159-.161.444.444 0 0 1 .253-.048c.099.006.187.039.262.099s.132.144.169.253c.04.111.056.244.046.399-.007.118-.03.235-.069.351a.952.952 0 0 1-.138.284l-.191-.119a.82.82 0 0 0 .133-.253c.031-.091.049-.183.054-.275.009-.164-.012-.287-.066-.369a.256.256 0 0 0-.208-.127.213.213 0 0 0-.166.053.475.475 0 0 0-.103.164c-.025.07-.047.147-.066.229a2.964 2.964 0 0 1-.067.25c-.024.084-.055.16-.093.227a.397.397 0 0 1-.395.214.447.447 0 0 1-.272-.106.565.565 0 0 1-.165-.267 1.17 1.17 0 0 1-.039-.409zM30.209 19.497a.83.83 0 0 1-.166.362.591.591 0 0 1-.306.204.886.886 0 0 1-.448.003l-1.035-.222.052-.241 1.011.217c.188.04.339.023.455-.051.117-.072.194-.193.23-.362a.694.694 0 0 0-.007-.349.534.534 0 0 0-.174-.264.752.752 0 0 0-.33-.149l-.936-.201.052-.241 2.517.54-.052.241-1.225-.263.102-.028a.653.653 0 0 1 .244.336c.048.14.054.297.017.469zM27.766 21.145a.957.957 0 0 1 .289-.395.898.898 0 0 1 .922-.109c.169.069.302.168.4.295s.157.27.177.429a.957.957 0 0 1-.071.485.941.941 0 0 1-.291.398.84.84 0 0 1-.427.181.935.935 0 0 1-.492-.071.95.95 0 0 1-.4-.295.86.86 0 0 1-.18-.43.977.977 0 0 1 .072-.488zm.203.083a.707.707 0 0 0-.053.357.641.641 0 0 0 .14.316.769.769 0 0 0 .312.226c.133.054.26.074.381.059a.616.616 0 0 0 .319-.128c.094-.071.166-.167.215-.287a.67.67 0 0 0-.088-.673.76.76 0 0 0-.312-.226.762.762 0 0 0-.381-.059.663.663 0 0 0-.323.13.678.678 0 0 0-.21.285zM26.715 23.19a.848.848 0 0 1 .319-.303.824.824 0 0 1 .43-.09c.157.011.32.07.488.176s.29.227.366.362c.078.137.113.278.106.424s-.053.286-.139.421a.914.914 0 0 1-.348.33.825.825 0 0 1-.45.102.965.965 0 0 1-.471-.158c-.157-.099-.272-.218-.348-.359s-.109-.291-.102-.45a.915.915 0 0 1 .148-.456zm-.053-1.145 2.11 1.331-.126.2-.464-.293-.295-.215-.33-.167-1.027-.648.132-.208zm.247 1.247a.7.7 0 0 0-.112.34.67.67 0 0 0 .082.339c.06.109.149.201.269.276s.24.116.362.122a.662.662 0 0 0 .602-.317.69.69 0 0 0 .111-.344.67.67 0 0 0-.082-.339c-.059-.106-.148-.196-.268-.272s-.24-.117-.363-.127a.662.662 0 0 0-.341.072.714.714 0 0 0-.26.25zM25.988 26.966a.83.83 0 0 1-.342.205.594.594 0 0 1-.368-.004.892.892 0 0 1-.372-.25l-.729-.767.178-.17.712.749c.132.139.267.21.404.214.137.007.269-.05.395-.169a.689.689 0 0 0 .191-.292.535.535 0 0 0 .006-.317.765.765 0 0 0-.188-.309l-.66-.694.178-.17 1.255 1.32-.171.163-.344-.362.092.041a.655.655 0 0 1 .012.415.865.865 0 0 1-.251.396zM23.062 26.937a.956.956 0 0 1 .461-.166.9.9 0 0 1 .826.425c.101.152.157.308.167.469s-.021.312-.093.454a.955.955 0 0 1-.33.362.961.961 0 0 1-.464.168.848.848 0 0 1-.455-.088.944.944 0 0 1-.369-.334.953.953 0 0 1-.167-.469.866.866 0 0 1 .091-.457.97.97 0 0 1 .333-.364zm.121.182a.686.686 0 0 0-.243.267.641.641 0 0 0-.06.341c.01.124.055.244.133.362.08.119.174.206.283.262a.62.62 0 0 0 .336.072c.118-.006.231-.046.339-.118s.187-.161.239-.268c.052-.105.074-.218.065-.34s-.053-.242-.133-.362a.765.765 0 0 0-.283-.262.67.67 0 0 0-.341-.073.676.676 0 0 0-.334.119zM21.597 27.832l1.332 1.42-.218.09-1.224-1.322.099-.041.054 1.807-.195.081-1.234-1.318.099-.041.06 1.804-.208.086-.059-1.947.215-.089 1.172 1.235-.067.028-.041-1.703.215-.089zM17.898 28.942c.149-.022.293-.022.431-.001a.937.937 0 0 1 .336.115l-.082.209a1.106 1.106 0 0 0-.672-.108c-.172.025-.291.07-.359.134a.257.257 0 0 0-.081.233c.01.067.039.115.088.145a.376.376 0 0 0 .177.061c.072.01.151.016.238.018s.174.005.261.011a.94.94 0 0 1 .238.046.473.473 0 0 1 .19.123c.05.056.083.135.098.238.015.098 0 .19-.043.276s-.115.158-.213.217a.994.994 0 0 1-.381.126 1.332 1.332 0 0 1-.357.003.937.937 0 0 1-.306-.078l.078-.211a1.008 1.008 0 0 0 .555.076c.163-.024.278-.07.348-.139a.257.257 0 0 0 .082-.23.212.212 0 0 0-.086-.152.49.49 0 0 0-.182-.068 2.156 2.156 0 0 0-.238-.018 2.75 2.75 0 0 1-.258-.015 1.01 1.01 0 0 1-.242-.045.393.393 0 0 1-.289-.343.443.443 0 0 1 .049-.288.569.569 0 0 1 .228-.216c.104-.057.235-.098.393-.121zM15.845 30.938a.826.826 0 0 1-.388-.09.59.59 0 0 1-.262-.259.888.888 0 0 1-.094-.438l.008-1.058.246.002-.008 1.034c-.001.192.046.337.142.435.094.1.228.151.401.152a.703.703 0 0 0 .341-.077.537.537 0 0 0 .224-.224.751.751 0 0 0 .079-.353l.007-.958.246.002-.02 2.574-.246-.002.01-1.252.048.094a.649.649 0 0 1-.28.306.875.875 0 0 1-.455.111zM13.76 28.885a.965.965 0 0 1 .446.201.902.902 0 0 1 .298.88c-.033.18-.102.331-.206.453s-.232.209-.383.262a.953.953 0 0 1-.489.031.968.968 0 0 1-.45-.202.845.845 0 0 1-.266-.38.934.934 0 0 1-.033-.496.95.95 0 0 1 .206-.453.865.865 0 0 1 .384-.265.966.966 0 0 1 .492-.03zm-.04.215a.698.698 0 0 0-.36.022.632.632 0 0 0-.28.203.755.755 0 0 0-.156.353.748.748 0 0 0 .021.385c.038.115.101.21.191.285.089.077.198.128.325.151s.247.014.358-.026c.111-.039.205-.105.283-.199s.13-.211.156-.352a.773.773 0 0 0-.021-.385.673.673 0 0 0-.194-.29.687.687 0 0 0-.322-.147zM11.543 28.277a.868.868 0 0 1 .363.249.816.816 0 0 1 .176.402c.021.156-.003.327-.072.514s-.162.331-.279.433c-.118.104-.249.168-.393.191s-.291.007-.441-.049a.913.913 0 0 1-.395-.272.809.809 0 0 1-.192-.419.972.972 0 0 1 .057-.493c.064-.174.158-.312.28-.414s.262-.167.419-.192a.921.921 0 0 1 .477.051zm1.11-.288-.868 2.339-.221-.082.191-.514.149-.333.095-.357.422-1.139.231.086zm-1.169.499a.698.698 0 0 0-.355-.04.668.668 0 0 0-.315.15c-.094.081-.166.188-.215.32s-.064.259-.045.38a.656.656 0 0 0 .435.524.69.69 0 0 0 .36.037.668.668 0 0 0 .315-.15c.091-.08.161-.186.21-.318s.065-.259.049-.381a.656.656 0 0 0-.141-.319.71.71 0 0 0-.298-.203zM7.697 28.335a.82.82 0 0 1-.27-.293.59.59 0 0 1-.07-.361.879.879 0 0 1 .17-.414l.604-.869.202.141-.59.849c-.109.158-.152.304-.128.439.021.136.103.253.246.352a.687.687 0 0 0 .325.128.532.532 0 0 0 .311-.059.766.766 0 0 0 .265-.247l.546-.787.202.141-1.039 1.496-.194-.135.285-.41-.022.099a.654.654 0 0 1-.404.095.874.874 0 0 1-.439-.165zM7.135 25.469c.125.123.21.263.256.418a.898.898 0 0 1 .003.466.95.95 0 0 1-.252.429c-.128.13-.27.216-.425.258s-.31.042-.464.001a.94.94 0 0 1-.421-.25.947.947 0 0 1-.258-.42.85.85 0 0 1-.006-.464.942.942 0 0 1 .252-.429.95.95 0 0 1 .425-.258.858.858 0 0 1 .466-.003.966.966 0 0 1 .424.252zm-.153.155a.637.637 0 0 0-.657-.174.755.755 0 0 0-.327.204.746.746 0 0 0-.199.33.61.61 0 0 0-.002.344c.03.114.092.217.184.308a.662.662 0 0 0 .657.174.739.739 0 0 0 .327-.204.773.773 0 0 0 .199-.33.656.656 0 0 0 .002-.349.678.678 0 0 0-.184-.303zM5.965 24.224l-1.116 1.595-.133-.195 1.043-1.469.061.089-1.757.424-.119-.175 1.037-1.478.061.089-1.753.43-.127-.186 1.894-.458.131.192-.967 1.401-.041-.06 1.659-.39.131.192zM4.116 20.836c.052.141.082.281.09.422a.95.95 0 0 1-.043.353l-.221-.037a1.106 1.106 0 0 0-.033-.679c-.06-.163-.129-.27-.205-.323a.257.257 0 0 0-.245-.031.19.19 0 0 0-.123.116.382.382 0 0 0-.023.186c.005.072.015.151.032.236s.031.171.044.258a.987.987 0 0 1 .005.242.477.477 0 0 1-.081.211.441.441 0 0 1-.212.145c-.093.035-.186.04-.279.015s-.179-.079-.257-.164a1.01 1.01 0 0 1-.203-.347 1.352 1.352 0 0 1-.078-.349.95.95 0 0 1 .012-.316l.223.032a.786.786 0 0 0-.02.285c.008.096.029.187.061.274.057.154.126.258.208.312a.258.258 0 0 0 .242.033.214.214 0 0 0 .131-.115.48.48 0 0 0 .029-.192 1.924 1.924 0 0 0-.032-.236 2.775 2.775 0 0 1-.039-.256 1.024 1.024 0 0 1-.006-.246.391.391 0 0 1 .276-.354.445.445 0 0 1 .292-.012.575.575 0 0 1 .259.178c.078.09.144.209.2.359zM1.749 19.281a.83.83 0 0 1 .008-.398.588.588 0 0 1 .199-.309.895.895 0 0 1 .409-.182l1.037-.21.049.241-1.013.205c-.188.038-.32.114-.396.229-.079.113-.101.254-.066.424a.69.69 0 0 0 .146.317.533.533 0 0 0 .265.173.756.756 0 0 0 .362.005l.939-.19.049.242-2.523.511-.049-.242 1.228-.249-.082.066a.657.657 0 0 1-.358-.211.869.869 0 0 1-.203-.423zM3.326 16.821a.952.952 0 0 1-.105.478.89.89 0 0 1-.321.338.942.942 0 0 1-.479.134c-.183.005-.344-.031-.485-.108s-.253-.184-.335-.321a.954.954 0 0 1-.131-.472.953.953 0 0 1 .105-.482.846.846 0 0 1 .317-.338.938.938 0 0 1 .479-.134.95.95 0 0 1 .485.108.862.862 0 0 1 .338.321.973.973 0 0 1 .131.476zm-.218.006a.706.706 0 0 0-.096-.348.64.64 0 0 0-.256-.233.76.76 0 0 0-.377-.08.751.751 0 0 0-.372.1.617.617 0 0 0-.24.246c-.057.103-.084.22-.081.349a.663.663 0 0 0 .353.58.75.75 0 0 0 .377.08.763.763 0 0 0 .372-.1.655.655 0 0 0 .243-.25.678.678 0 0 0 .077-.346zM3.46 14.509a.853.853 0 0 1-.169.407.825.825 0 0 1-.357.256c-.148.053-.321.065-.517.036s-.357-.09-.482-.183c-.127-.093-.216-.208-.268-.345s-.067-.283-.044-.441a.91.91 0 0 1 .185-.443.82.82 0 0 1 .37-.275.953.953 0 0 1 .494-.046c.183.027.338.089.463.187s.218.221.275.37a.916.916 0 0 1 .049.477zm.512 1.026-2.468-.363.034-.233.542.08.357.077.369.019 1.201.177-.036.244zm-.731-1.041a.693.693 0 0 0-.035-.356.666.666 0 0 0-.212-.277c-.099-.075-.218-.123-.358-.144s-.266-.009-.381.035a.665.665 0 0 0-.423.534.69.69 0 0 0 .038.36.666.666 0 0 0 .212.277c.097.073.215.119.355.14s.267.01.383-.031a.669.669 0 0 0 .283-.204.717.717 0 0 0 .137-.334zM2.613 10.728a.842.842 0 0 1 .231-.324.59.59 0 0 1 .339-.143.878.878 0 0 1 .441.081l.975.412-.096.227-.952-.403c-.177-.075-.329-.086-.456-.035-.129.049-.227.153-.294.313a.703.703 0 0 0-.059.344c.01.107.05.205.121.292.07.085.168.154.296.208l.882.373-.096.227-1.678-.71.092-.217.46.195-.101-.001a.65.65 0 0 1-.176-.376.86.86 0 0 1 .072-.463zM5.302 9.592a.959.959 0 0 1-.357.335.9.9 0 0 1-.927-.062c-.153-.099-.267-.22-.339-.364s-.104-.295-.095-.454a.94.94 0 0 1 .159-.463.955.955 0 0 1 .359-.338.846.846 0 0 1 .453-.1.936.936 0 0 1 .471.16.941.941 0 0 1 .339.364.871.871 0 0 1 .098.456.966.966 0 0 1-.161.466zm-.183-.119a.688.688 0 0 0 .117-.341.638.638 0 0 0-.08-.337.752.752 0 0 0-.266-.279.755.755 0 0 0-.364-.128.617.617 0 0 0-.337.067c-.106.053-.194.134-.264.242s-.108.222-.113.34c-.007.117.018.229.075.338s.145.201.266.279c.119.077.24.119.364.128a.676.676 0 0 0 .342-.068.685.685 0 0 0 .259-.241zM6.277 8.194l-1.788-.77.164-.17 1.65.723-.075.077-.771-1.635.147-.152 1.657.716-.075.077-.776-1.63.157-.162.832 1.761-.161.167-1.568-.663.051-.052.718 1.545-.161.167zM9.187 5.707c-.127.08-.259.139-.394.175a.947.947 0 0 1-.354.031l-.01-.224a1.086 1.086 0 0 0 .658-.174c.147-.093.238-.182.274-.267a.258.258 0 0 0-.02-.246.193.193 0 0 0-.139-.097.373.373 0 0 0-.187.016c-.07.019-.145.046-.224.08s-.161.066-.243.096a.993.993 0 0 1-.236.055.48.48 0 0 1-.223-.035.44.44 0 0 1-.186-.178c-.053-.084-.077-.174-.072-.27s.041-.191.107-.285a1.01 1.01 0 0 1 .297-.27c.1-.063.208-.112.325-.148a.943.943 0 0 1 .311-.053l.015.225a.792.792 0 0 0-.283.039 1.018 1.018 0 0 0-.255.116c-.139.088-.226.177-.262.268a.254.254 0 0 0 .018.243.214.214 0 0 0 .14.105c.058.01.123.006.194-.011a1.96 1.96 0 0 0 .224-.08c.08-.034.16-.064.242-.091a.997.997 0 0 1 .239-.057.4.4 0 0 1 .404.197c.057.09.081.184.072.283a.568.568 0 0 1-.121.29 1.17 1.17 0 0 1-.31.269zM10.256 3.046a.826.826 0 0 1 .391-.074c.126.006.241.05.344.131.105.08.193.201.263.363l.42.972-.226.098-.41-.949c-.076-.176-.178-.29-.306-.34-.127-.054-.269-.046-.429.023a.704.704 0 0 0-.281.208.531.531 0 0 0-.114.295.756.756 0 0 0 .07.355l.38.879-.226.098-1.021-2.364.226-.098.497 1.15-.082-.067a.66.66 0 0 1 .132-.394.863.863 0 0 1 .372-.285zM12.951 4.092a.967.967 0 0 1-.49-.004.906.906 0 0 1-.627-.685c-.042-.178-.04-.344.006-.497s.128-.285.245-.394a.944.944 0 0 1 .435-.225.945.945 0 0 1 .493.004.837.837 0 0 1 .396.241.934.934 0 0 1 .23.441.95.95 0 0 1-.006.497.867.867 0 0 1-.244.397.966.966 0 0 1-.438.226zM12.9 3.88a.704.704 0 0 0 .321-.166.643.643 0 0 0 .175-.299.76.76 0 0 0 .001-.385.755.755 0 0 0-.175-.344.62.62 0 0 0-.29-.184c-.113-.035-.232-.037-.358-.007s-.232.086-.317.168c-.086.08-.145.179-.179.296s-.034.246-.001.385a.765.765 0 0 0 .175.344.66.66 0 0 0 .294.187.684.684 0 0 0 .354.005zM15.192 3.749a.85.85 0 0 1-.433-.081.814.814 0 0 1-.324-.296c-.082-.134-.13-.3-.142-.499s.014-.368.08-.509c.065-.143.159-.254.282-.334s.264-.124.423-.134a.91.91 0 0 1 .471.089.828.828 0 0 1 .346.305.96.96 0 0 1 .147.474c.011.185-.018.349-.088.492s-.172.259-.305.346a.906.906 0 0 1-.457.146zm-.898.712-.154-2.49.236-.015.034.547-.002.365.057.365.075 1.212-.246.015zm.867-.929a.691.691 0 0 0 .341-.108.655.655 0 0 0 .227-.264c.053-.112.076-.239.067-.38s-.046-.263-.113-.365a.658.658 0 0 0-.61-.303.655.655 0 0 0-.571.376c-.051.11-.072.235-.064.376s.045.264.11.369a.658.658 0 0 0 .258.234.712.712 0 0 0 .355.065zM18.801 2.137a.828.828 0 0 1 .365.159.587.587 0 0 1 .21.302.888.888 0 0 1 .012.448l-.202 1.039-.242-.047.198-1.015c.037-.188.017-.34-.06-.454-.074-.116-.196-.19-.367-.223a.701.701 0 0 0-.349.013.531.531 0 0 0-.261.179.759.759 0 0 0-.143.333l-.183.94-.242-.047.348-1.788.232.045-.096.49-.02-.099a.653.653 0 0 1 .331-.25.87.87 0 0 1 .468-.026zM20.456 4.527a.964.964 0 0 1-.402-.28.896.896 0 0 1-.13-.92c.065-.171.161-.306.286-.407s.267-.163.424-.186a.941.941 0 0 1 .486.06.967.967 0 0 1 .405.282.843.843 0 0 1 .191.423.934.934 0 0 1-.06.494.96.96 0 0 1-.286.407.87.87 0 0 1-.426.19.972.972 0 0 1-.489-.061zm.079-.204a.704.704 0 0 0 .358.045.643.643 0 0 0 .313-.147.767.767 0 0 0 .219-.318.753.753 0 0 0 .05-.382.62.62 0 0 0-.135-.316c-.073-.093-.171-.162-.292-.209a.66.66 0 0 0-.671.103.75.75 0 0 0-.218.318.758.758 0 0 0-.05.382.663.663 0 0 0 .137.32c.074.09.171.158.29.204zM22.066 5.214l.391-1.907.2.126-.374 1.762-.091-.057 1.445-1.086.179.113-.365 1.768-.091-.057 1.439-1.09.191.12-1.556 1.172-.197-.124.332-1.67.062.039-1.368 1.016-.197-.124zM25.095 7.565a1.424 1.424 0 0 1-.251-.351.962.962 0 0 1-.102-.34l.217-.055a1.113 1.113 0 0 0 .303.609c.12.125.226.196.318.214a.261.261 0 0 0 .237-.069.197.197 0 0 0 .067-.156.384.384 0 0 0-.053-.18c-.033-.064-.075-.132-.124-.203s-.097-.144-.143-.219a1.005 1.005 0 0 1-.101-.22.482.482 0 0 1-.011-.226.441.441 0 0 1 .136-.218c.072-.069.155-.111.25-.125s.195.001.301.047a.992.992 0 0 1 .324.237c.082.085.152.181.211.288.06.106.099.204.115.294l-.217.06a.78.78 0 0 0-.096-.269 1.042 1.042 0 0 0-.165-.226c-.114-.118-.219-.186-.315-.202a.255.255 0 0 0-.234.067.212.212 0 0 0-.074.158.466.466 0 0 0 .051.187c.035.066.076.134.124.203.05.071.096.144.138.218a.971.971 0 0 1 .104.223.39.39 0 0 1-.11.435.448.448 0 0 1-.263.128.565.565 0 0 1-.308-.06 1.164 1.164 0 0 1-.327-.249zM27.897 8.046a.834.834 0 0 1 .153.368.583.583 0 0 1-.058.363.875.875 0 0 1-.301.331l-.865.61-.142-.201.845-.596c.157-.111.247-.234.27-.369.027-.135-.01-.273-.11-.415a.704.704 0 0 0-.261-.232.534.534 0 0 0-.312-.051.747.747 0 0 0-.333.142L26 8.548l-.142-.201 2.104-1.484.142.201-1.024.722.049-.094a.656.656 0 0 1 .413.049c.136.06.254.162.355.305zM27.442 10.925a.958.958 0 0 1-.096-.48.903.903 0 0 1 .541-.755c.165-.078.328-.11.488-.096s.305.067.436.159c.13.092.233.218.31.38.077.163.11.324.098.483a.842.842 0 0 1-.154.437.945.945 0 0 1-.384.316.952.952 0 0 1-.488.096.871.871 0 0 1-.439-.157.97.97 0 0 1-.311-.383zm.198-.093a.692.692 0 0 0 .228.28.643.643 0 0 0 .328.11.76.76 0 0 0 .377-.078.75.75 0 0 0 .301-.242.66.66 0 0 0 .053-.674.672.672 0 0 0-.23-.275c-.096-.067-.205-.105-.327-.114s-.248.017-.377.078a.75.75 0 0 0-.3.242.661.661 0 0 0-.122.326.685.685 0 0 0 .068.348zM28.235 13.05a.844.844 0 0 1-.009-.44.826.826 0 0 1 .223-.378c.114-.108.267-.189.459-.241s.363-.062.515-.026c.153.035.282.104.384.207s.176.232.218.386a.923.923 0 0 1 .01.48.822.822 0 0 1-.228.401.966.966 0 0 1-.434.242c-.178.049-.345.054-.5.015s-.288-.115-.401-.228a.917.917 0 0 1-.237-.417zm-.882-.733 2.406-.662.062.227-.529.145-.358.073-.345.131-1.171.322-.065-.238zm1.088.658a.687.687 0 0 0 .176.312.669.669 0 0 0 .305.168c.121.029.249.025.385-.012s.248-.099.334-.185a.66.66 0 0 0 .172-.658.679.679 0 0 0-.18-.314.669.669 0 0 0-.305-.168c-.118-.028-.245-.023-.381.015s-.249.098-.338.183a.66.66 0 0 0-.177.3.715.715 0 0 0 .009.361z"/></symbol>
</defs>
</svg>